HIERARCHY
ROOT Hips
{
	OFFSET	0	0	0
	CHANNELS 6  Xposition Yposition Zposition Xrotation Yrotation Zrotation
	JOINT Spine
	{
		OFFSET	0	6.43035	1.29592
		CHANNELS 3  Xrotation Yrotation Zrotation
		JOINT Spine1
		{
			OFFSET	0	11.0515	-1.97348
			CHANNELS 3  Xrotation Yrotation Zrotation
			JOINT Spine2
			{
				OFFSET	0	8.37743	0.897934
				CHANNELS 3  Xrotation Yrotation Zrotation
				JOINT Spine3
				{
					OFFSET	0	10.0253	2.97996
					CHANNELS 3  Xrotation Yrotation Zrotation
					JOINT Spine4
					{
						OFFSET	0	14.8406	-1.51958
						CHANNELS 3  Xrotation Yrotation Zrotation
						JOINT Neck
						{
							OFFSET	0	7.0848	-4.96331
							CHANNELS 3  Xrotation Yrotation Zrotation
							JOINT Head
							{
								OFFSET	0	8.50571	-2.54579
								CHANNELS 3  Xrotation Yrotation Zrotation
								End Site
								{
									OFFSET	0	17.7416	-0.858465
								}
							}
						}
					}
					JOINT LeftShoulder
					{
						OFFSET	-4.26272	18.0376	-8.50571
						CHANNELS 3  Xrotation Yrotation Zrotation
						JOINT LeftArm
						{
							OFFSET	-9.26857	-2.54579	3.26613
							CHANNELS 3  Xrotation Yrotation Zrotation
							JOINT LeftForeArm
							{
								OFFSET	-28.2392	-1.28889	2.01568
								CHANNELS 3  Xrotation Yrotation Zrotation
								JOINT LeftHand
								{
									OFFSET	-22.9751	-1.58771	1.63994
									CHANNELS 3  Xrotation Yrotation Zrotation
									End Site
									{
										OFFSET	-8.38477	-0.579434	0.598457
									}
								}
							}
						}
					}
					JOINT RightShoulder
					{
						OFFSET	4.26272	18.0376	-8.50571
						CHANNELS 3  Xrotation Yrotation Zrotation
						JOINT RightArm
						{
							OFFSET	9.26857	-2.54579	3.26613
							CHANNELS 3  Xrotation Yrotation Zrotation
							JOINT RightForeArm
							{
								OFFSET	28.2392	-1.28889	2.01568
								CHANNELS 3  Xrotation Yrotation Zrotation
								JOINT RightHand
								{
									OFFSET	22.9751	-1.58771	1.63994
									CHANNELS 3  Xrotation Yrotation Zrotation
									End Site
									{
										OFFSET	8.38477	-0.579434	0.598457
									}
								}
							}
						}
					}
				}
			}
		}
	}
	JOINT LeftUpLeg
	{
		OFFSET	-8.79432	-3.21518	-0.64796
		CHANNELS 3  Xrotation Yrotation Zrotation
		JOINT LeftLeg
		{
			OFFSET	-1.93242	-37.8649	-0.591911
			CHANNELS 3  Xrotation Yrotation Zrotation
			JOINT LeftFoot
			{
				OFFSET	-1.8889	-34.8184	2.99439
				CHANNELS 3  Xrotation Yrotation Zrotation
				JOINT LeftToeBase
				{
					OFFSET	0	-4.3392	-11.5249
					CHANNELS 3  Xrotation Yrotation Zrotation
					End Site
					{
						OFFSET	0	-1.73568	-6.94272
					}
				}
			}
		}
	}
	JOINT RightUpLeg
	{
		OFFSET	8.79432	-3.21518	-0.64796
		CHANNELS 3  Xrotation Yrotation Zrotation
		JOINT RightLeg
		{
			OFFSET	1.93242	-37.8649	-0.591911
			CHANNELS 3  Xrotation Yrotation Zrotation
			JOINT RightFoot
			{
				OFFSET	1.8889	-34.8184	2.99439
				CHANNELS 3  Xrotation Yrotation Zrotation
				JOINT RightToeBase
				{
					OFFSET	0	-4.3392	-11.5249
					CHANNELS 3  Xrotation Yrotation Zrotation
					End Site
					{
						OFFSET	0	-1.73568	-6.94272
					}
				}
			}
		}
	}
}
MOTION
Frames: 9
Frame Time: 0.020408
 -49.0993 71.0814 -69.5733 7.10174 -170.606 26.2533 179.999 -179.992 173.115 2.88976 -0.0156923 -11.4744 2.74278 -0.0470769 -11.4744 1.50585 -0.00794843 -6.88463 1.94702 -0.0780108 -2.29355 1.94083 8.34854 12.1303 0.841933 0.322503 3.66801 1.17073 -2.73597 2.31152 6.75598 -12.6916 66.4658 0.039738 -121.92 -1.45305 -0 -40.3454 -14.2099 171.918 176.286 -163.618 178.785 -178.053 120.175 175.231 57.9853 -174.114 -0 38.5063 2.84742 42.2249 18.8232 -49.4989 116.344 164.092 179.676 36.1456 0.0517335 11.4718 172.903 180 -180 41.4095 -20.4384 -11.2717 141.659 -175.695 -179.929 179.042 -179.969 175.401 167.693 180 -180
 -49.3295 71.177 -69.8201 7.44283 -170.09 26.4794 179.999 -179.993 173.109 2.90008 -0.0143402 -11.4852 2.70677 -0.0430206 -11.4852 1.37203 -0.00726374 -6.89111 2.27815 -0.0913576 -2.29522 2.90688 8.41889 11.7215 1.12265 0.43748 3.59113 1.20597 -3.43172 2.39427 6.84502 -11.6838 66.7599 0.670219 -122.707 -0.932144 -0 -41.6179 -14.1482 171.696 175.821 -163.092 178.81 -177.242 120.288 175.258 58.1953 -174.176 -0 39.3083 3.11545 42.4446 18.404 -49.1846 116.302 163.954 179.874 36.1019 -0.0105354 11.4802 172.899 180 -180 41.557 -20.4577 -11.4862 142.35 -175.824 -179.969 178.566 179.978 175.388 167.693 180 -180
 -49.459 71.36 -70.015 7.65741 -170.49 26.1932 179.998 -179.987 173.084 2.91785 -0.0261229 -11.5259 2.63502 -0.0783686 -11.5259 1.13063 -0.0132333 -6.91553 2.87734 -0.115778 -2.30227 4.74274 7.43928 10.3583 1.63061 -0.370041 3.19362 1.29903 -3.73887 2.58532 6.22598 -10.405 66.9714 1.46738 -122.726 -0.490474 -0 -42.8069 -14.0074 171.666 175.184 -162.949 179.122 -176.528 120.033 175.329 58.2462 -174.348 -0 40.1827 3.33516 42.4846 18.0905 -48.6584 116.375 163.932 -179.946 35.3751 0.00488016 11.4754 172.894 180 -180 41.7083 -20.5135 -11.7347 143.047 -175.864 -179.886 178.053 179.977 175.382 167.692 180 -180
 -49.4622 71.5396 -70.1689 8.22325 -172.005 25.7923 179.996 -179.971 173.058 2.92721 -0.0576019 -11.5701 2.56271 -0.172806 -11.5701 0.933029 -0.0291828 -6.94203 3.36335 -0.135832 -2.31002 6.2963 5.11294 8.82807 2.04595 -2.79196 2.62393 1.25709 -3.548 2.4981 4.55976 -9.24443 67.1679 2.36046 -122.899 0.229565 -0 -43.996 -13.6994 171.758 174.539 -163.071 179.691 -175.932 119.49 175.354 58.2538 -174.325 -0 41.0257 3.57977 42.6288 17.866 -48.1724 116.566 163.852 -179.787 34.5358 0.0224432 11.4749 172.888 180 -180 42.328 -20.3793 -12.106 143.872 -175.974 -179.745 177.509 179.968 175.389 167.693 180 -180
 -49.2895 71.6825 -70.6969 8.63104 -172.052 26.3251 179.999 -179.994 173.037 2.93626 -0.010928 -11.6043 2.55186 -0.0327841 -11.6043 0.81858 -0.0055369 -6.96258 3.63593 -0.147261 -2.31619 7.12751 3.6764 8.53149 2.28626 -4.94033 2.43398 1.27037 -3.10239 2.51575 2.92153 -8.2491 67.8294 3.29935 -123.362 0.763526 -0 -45.2694 -13.3045 171.888 174.024 -163.289 179.878 -175.433 119.061 175.451 58.593 -174.403 -0 41.9101 3.76934 42.9696 17.0647 -47.5383 116.563 163.702 179.941 34.7888 0.110712 11.457 172.888 180 -180 42.518 -20.293 -12.4454 144.678 -176.06 -179.781 176.25 -179.997 175.391 167.695 180 -180
 -49.3476 71.6999 -71.0753 8.92796 -171.977 27.1118 179.999 -179.99 173.016 2.92121 -0.0188485 -11.6402 2.48886 -0.0565454 -11.6402 0.675144 -0.00955072 -6.98414 3.94386 -0.160208 -2.32253 8.0783 2.34948 8.30087 2.56495 -6.96889 2.28232 1.27175 -2.71738 2.51078 1.05046 -7.33821 68.5469 4.27006 -122.998 1.59168 -0 -46.4587 -12.9928 171.889 173.528 -163.236 0.0170276 -4.98333 -61.0411 175.549 59.1095 -174.398 -0 42.6792 3.94856 43.5139 16.1614 -47.345 116.55 163.672 179.671 35.7271 0.0189196 11.4745 172.889 180 -180 42.6954 -20.2147 -12.8332 145.217 -176.138 -179.781 175.186 -179.987 175.39 167.695 180 -180
 -49.3919 71.6702 -71.3712 9.28561 -172.201 27.4774 179.998 -179.987 172.99 2.90997 -0.0255672 -11.6836 2.4423 -0.0767018 -11.6836 0.570599 -0.0129565 -7.01016 4.16803 -0.169931 -2.33054 8.77124 1.31801 8.2942 2.77331 -8.71191 2.21275 1.30991 -2.51787 2.58205 179.938 -173.388 -111.012 5.39054 -122.538 2.73764 -0 -47.5184 -12.5798 171.842 173.126 -163.093 179.953 -174.698 118.937 175.634 59.9115 -174.527 -0 43.3742 4.12355 43.9105 15.4098 -47.3264 116.618 163.638 179.743 36.2859 0.00122785 11.4722 172.887 180 -180 42.9185 -20.1528 -13.1144 145.757 -176.208 -179.777 175.008 -179.981 175.424 167.699 180 -180
 -49.5437 71.6415 -71.5268 9.55875 -172.051 27.8019 179.999 -179.988 172.953 2.9057 -0.0230679 -11.7451 2.40728 -0.0692037 -11.7451 0.472405 -0.0116916 -7.04705 4.38828 -0.179836 -2.34213 9.41848 0.625061 8.57411 2.97951 -10.2793 2.25145 1.35057 -2.15754 2.65445 179.346 -174.145 -110.253 6.54814 -122.149 3.85946 -0 -48.5331 -12.1549 171.769 172.806 -162.901 179.867 -174.371 118.928 175.711 60.9935 -174.643 -0 43.929 4.28739 44.278 14.8087 -47.5671 116.739 163.778 179.799 36.6139 0.0115521 11.4768 172.881 180 -180 43.0539 -20.0708 -13.2859 146.166 -176.309 -179.804 174.845 -179.978 175.45 167.703 180 -180
 -49.6382 71.6249 -71.6657 9.81159 -172.069 28.0623 179.999 -179.994 172.943 2.91178 -0.0119308 -11.7619 2.38848 -0.0357924 -11.7619 0.38708 -0.00604719 -7.05716 4.59594 -0.188598 -2.34482 10.0101 0.0492888 9.00795 3.17646 -11.8516 2.34465 1.3439 -1.84026 2.6344 178.888 -174.886 -109.735 7.94691 -121.46 5.15903 -0 -49.5421 -11.6603 171.662 172.626 -162.649 179.557 -174.031 118.873 175.737 62.1809 -174.639 -0 44.51 4.46751 44.5784 14.3202 -47.8253 116.891 163.858 179.875 36.8915 0.0212871 11.4747 172.869 180 -180 43.1697 -19.9641 -13.4454 146.588 -176.381 -179.738 174.699 -179.988 175.475 167.707 180 -180
